<?xml version="1.0" encoding="UTF-8" standalone="no"?>
<!-- Created with Inkscape (http://www.inkscape.org/) -->

<svg
   width="210mm"
   height="297mm"
   viewBox="0 0 210 297"
   version="1.1"
   id="svg5"
   inkscape:version="1.2.1 (9c6d41e4, 2022-07-14)"
   sodipodi:docname="W6Y0XZ_1.svg"
   xmlns:inkscape="http://www.inkscape.org/namespaces/inkscape"
   xmlns:sodipodi="http://sodipodi.sourceforge.net/DTD/sodipodi-0.dtd"
   xmlns="http://www.w3.org/2000/svg"
   xmlns:svg="http://www.w3.org/2000/svg">
  <sodipodi:namedview
     id="namedview7"
     pagecolor="#ffffff"
     bordercolor="#000000"
     borderopacity="0.25"
     inkscape:showpageshadow="2"
     inkscape:pageopacity="0.0"
     inkscape:pagecheckerboard="0"
     inkscape:deskcolor="#d1d1d1"
     inkscape:document-units="mm"
     showgrid="false"
     inkscape:zoom="0.39325349"
     inkscape:cx="124.60156"
     inkscape:cy="452.63425"
     inkscape:window-width="1440"
     inkscape:window-height="900"
     inkscape:window-x="0"
     inkscape:window-y="0"
     inkscape:window-maximized="0"
     inkscape:current-layer="layer1" />
  <defs
     id="defs2" />
  <g
     inkscape:label="Réteg 1"
     inkscape:groupmode="layer"
     id="layer1">
    <path
       id="path223"
       style="stroke-width:0.264583"
       inkscape:transform-center-x="0.49092979"
       inkscape:transform-center-y="6.1350864"
       d="M 147.34452,81.409532 101.75853,86.967497 80.493657,127.67104 61.120872,86.033695 15.838293,78.387685 49.451244,47.096424 42.729945,1.6673841 82.876676,23.965668 124.00526,3.5349883 115.20436,48.607347 Z m 18.16577,61.225358 A 48.778439,47.76923 0 0 1 116.73185,190.40412 48.778439,47.76923 0 0 1 67.953411,142.63489 48.778439,47.76923 0 0 1 116.73185,94.865658 48.778439,47.76923 0 0 1 165.51029,142.63489 Z M 24.221018,47.09642 h 91.501622 v 82.08234 H 24.221018 Z"
       transform="matrix(1.1303609,0,0,1.1069436,-2.0646941,-0.17831602)" />
  </g>
</svg>
